<?xml version="1.0" encoding="utf-8"?>
<!-- Generator: Adobe Illustrator 27.5.0, SVG Export Plug-In . SVG Version: 6.00 Build 0)  -->
<svg version="1.1" xmlns="http://www.w3.org/2000/svg" xmlns:xlink="http://www.w3.org/1999/xlink" x="0px" y="0px"
	 viewBox="0 0 750 500" style="enable-background:new 0 0 750 500;" xml:space="preserve">
<g id="BACKGROUND">
	<rect style="opacity:0.1;fill:#FFFFFF;" width="750" height="500"/>
</g>
<g id="OBJECTS">
	<g>
		<g>
			<g>
				<polygon style="fill:#FFB042;" points="343.732,201.61 147.495,201.61 175.171,172.285 371.407,172.285 				"/>
			</g>
			<g>
				<g>
					<polygon style="fill:#2C285A;" points="258.256,182.345 289.589,182.345 277.272,132.775 245.939,132.775 					"/>
				</g>
				<g>
					<g>
						<path style="fill:#5D93E9;" d="M351.044,59.684l-0.535,4.965l-2.872,27.063l-2.434,22.78l-0.584,5.597l-3.31,31.225
							l-0.438,4.162c-0.073,0.535-0.56,0.974-1.095,0.974H191.609l0.56-5.135l8.664-81.458l0.535-5.038l0.438-4.162
							c0.049-0.535,0.56-0.973,1.095-0.973H351.044z"/>
					</g>
					<g>
						<path style="fill:#9FC7FF;" d="M263.505,114.069h-5.181c-2.352,0-4.259-1.907-4.259-4.259v-9.374
							c0-2.352,1.907-4.259,4.259-4.259h5.181c2.352,0,4.259,1.907,4.259,4.259v9.374
							C267.764,112.162,265.857,114.069,263.505,114.069z"/>
					</g>
					<g>
						<path style="fill:#2C285A;" d="M344.62,120.09l-3.31,31.225l-0.438,4.162c-0.073,0.535-0.56,0.974-1.095,0.974h-47.118
							l2.239-13.848c0.876-5.5,3.651-10.538,7.545-14.457c4.941-4.94,11.682-8.104,18.643-8.104h22.536
							C343.962,120.041,344.303,120.041,344.62,120.09z"/>
					</g>
					<g>
						<path style="fill:#3A66B0;" d="M332.256,156.45h-83.575l0.487-2.142c1.995-8.98,8.007-16.525,16.306-20.492l23.51-11.268
							l13.459,5.598l10.684,4.454c9.711,4.04,16.793,12.582,18.934,22.877L332.256,156.45z"/>
					</g>
					<g>
						<path style="fill:#88B4F6;" d="M277.808,118.963v16.574c0,0-1.184,10.26,5.393,9.339c6.577-0.921,13.555-19.088,13.555-19.088
							l-1.086-16.121L277.808,118.963z"/>
					</g>
					<g>
						
							<ellipse transform="matrix(0.382 -0.9242 0.9242 0.382 78.2638 323.2337)" style="fill:#88B4F6;" cx="280.813" cy="103.099" rx="24.598" ry="17.196"/>
					</g>
					<g>
						<path style="fill:#2C285A;" d="M308.227,96.474c-1.509,7.593-8.397,14.164-11.001,13.069
							c-1.679-0.682-1.679-4.527-1.412-7.812c-1.606-1.119-3.358-2.458-5.111-4.089c-3.212-2.969-5.598-6.06-7.301-8.786
							c1.314,2.434,1.631,4.065,0.974,4.941c-1.314,1.703-6.352,0.487-15.187-3.602c-1.412,2.117-2.847,4.235-4.259,6.328
							c-9.808-1.753-14.749-3.699-14.822-5.841c-0.073-1.558,2.361-3.188,7.277-4.941c-1.752-5.768-4.089-14.651-1.923-15.746
							c0.754-0.389,2.823-0.122,9.102,7.812c0.852-1.241,6.23-8.81,15.893-9.832c1.363-0.146,2.677-0.146,3.894-0.024
							c5.865,0.511,10.1,3.505,12.096,4.892l0.024,0.024C302.946,77.442,310.174,86.763,308.227,96.474z"/>
					</g>
					<g>
						<path style="fill:#FFFFFF;" d="M303.86,105.985c-1.473,3.83-4.481,6.238-6.72,5.377c-2.239-0.861-2.859-4.664-1.387-8.494
							c1.473-3.83,4.481-6.238,6.72-5.377C304.712,98.351,305.333,102.154,303.86,105.985z"/>
						<path style="fill:#FF5A19;" d="M298.085,112.753c-0.471,0-0.936-0.083-1.383-0.254c-1.502-0.578-2.514-2.025-2.85-4.074
							c-0.295-1.813-0.024-3.943,0.765-5.994c0.787-2.051,2.013-3.812,3.446-4.96c1.623-1.305,3.342-1.697,4.846-1.117
							c2.909,1.122,3.824,5.543,2.087,10.068l0,0C303.523,110.253,300.688,112.753,298.085,112.753z M301.517,98.533
							c-0.57,0-1.248,0.29-1.932,0.837c-1.086,0.87-2.07,2.305-2.695,3.936c-0.628,1.63-0.858,3.354-0.635,4.727
							c0.188,1.143,0.668,1.944,1.322,2.194c1.379,0.539,3.834-1.264,5.148-4.68l0,0c1.312-3.415,0.689-6.391-0.689-6.921
							C301.876,98.564,301.703,98.533,301.517,98.533z"/>
					</g>
					<g>
						<path style="fill:#2C285A;" d="M276.804,117.765c-0.471,0-0.941-0.04-1.407-0.126c-0.663-0.124-1.1-0.756-0.979-1.416
							c0.124-0.663,0.768-1.079,1.417-0.979c2.101,0.39,4.423-0.551,5.668-2.274c0.392-0.547,1.153-0.675,1.697-0.276
							c0.547,0.392,0.67,1.153,0.276,1.697C281.952,116.506,279.392,117.765,276.804,117.765z"/>
					</g>
					<g>
						<polygon style="fill:#2C285A;" points="235.747,69.857 235.747,156.45 191.609,156.45 192.168,151.315 200.833,69.857 						
							"/>
					</g>
					<g>
						<path style="fill:#9FC7FF;" d="M303.135,114.069h-5.181c-2.352,0-4.259-1.907-4.259-4.259v-9.374
							c0-2.352,1.907-4.259,4.259-4.259h5.181c2.352,0,4.259,1.907,4.259,4.259v9.374
							C307.395,112.162,305.488,114.069,303.135,114.069z"/>
					</g>
					<g>
						<g>
							<path style="fill:#9FC7FF;" d="M302.97,105.259c-0.073,1.29-1.144,2.288-2.434,2.288h-0.121
								c-1.339-0.073-2.385-1.217-2.288-2.555c1.703-30.471-13.021-36.75-13.653-36.993c-0.049-0.024-0.073-0.024-0.122-0.049
								c1.16-0.167,3.865-0.399,6.904,0.888c2.817,1.193,4.474,3.076,5.192,4.004l0.024,0.024
								C300.463,79.121,303.87,89.245,302.97,105.259z"/>
						</g>
					</g>
					<g>
						<path style="fill:#2C285A;" d="M270.644,111.95c-0.216,0-0.435-0.057-0.635-0.178c-0.444-0.271-1.802-1.098-1.642-2.569
							c0.093-0.834,0.685-1.55,1.545-1.871c0.195-0.071,0.39-0.121,0.578-0.152l0.72-4.359c0.107-0.663,0.753-1.127,1.398-1.003
							c0.663,0.109,1.112,0.734,1.003,1.398l-0.877,5.319c-0.097,0.589-0.606,1.02-1.2,1.02c-0.04-0.005-0.131-0.002-0.2-0.002
							c-0.09,0-0.181,0.002-0.264,0.007c0.057,0.04,0.126,0.085,0.209,0.135c0.573,0.349,0.753,1.098,0.404,1.673
							C271.454,111.743,271.053,111.95,270.644,111.95z"/>
					</g>
				</g>
				<g>
					<path style="fill:#2C285A;" d="M347.637,91.712l-2.434,22.78h-23.827c-3.188,0-5.768-2.58-5.768-5.793V97.48
						c0-3.188,2.58-5.768,5.768-5.768H347.637z"/>
				</g>
			</g>
		</g>
		<g>
			<path style="fill:#FFFFFF;stroke:#FF5A19;stroke-width:1.6614;stroke-miterlimit:10;" d="M202.13,162.565"/>
		</g>
		<g>
			<g>
				<g>
					<polygon style="fill:#FFB3AE;" points="180.557,143.915 205.854,143.915 210.844,113.744 185.547,113.744 					"/>
				</g>
				<g>
					
						<ellipse transform="matrix(0.949 -0.3152 0.3152 0.949 -21.7303 69.617)" style="fill:#FFB3AE;" cx="204.404" cy="102.003" rx="23.863" ry="33.742"/>
				</g>
				<g>
					<path style="fill:#002D53;" d="M229.188,102.424c1.326-3.075,3.86-10.189,1.542-17.974
						c-3.996-13.419-20.318-21.806-34.611-18.952c-14.929,2.98-21.649,17.025-22.443,18.756
						c-2.071,1.495-10.515,7.937-10.984,17.717c-0.63,13.11,13.479,23.703,25.999,25.26c7.921,0.985,14.361-1.752,17.407-3.307
						c0.783-0.195,9.431-2.502,12.626-11.055c2.514-6.733-0.105-12.638-0.641-13.787c1.225,2.877,3.788,4.796,6.573,4.889
						C226.929,104.049,228.598,102.882,229.188,102.424z"/>
				</g>
				<g>
					<path style="fill:#FFB3AE;" d="M208.326,112.81c-0.496,5.518,0.961,10.159,3.255,10.366c2.294,0.207,4.556-4.099,5.052-9.617
						c0.496-5.518-0.961-10.159-3.255-10.366C211.084,102.986,208.822,107.291,208.326,112.81z"/>
				</g>
			</g>
			<g>
				<g>
					<g>
						<rect x="100.167" y="102.287" style="fill:#A16C61;" width="33.671" height="8.675"/>
					</g>
					<g>
						<polygon style="fill:#BC7F72;" points="127.843,142.281 106.162,142.281 102.961,110.962 131.045,110.962 						"/>
					</g>
					<g>
						<rect x="101.682" y="98.928" style="fill:#A16C61;" width="30.642" height="3.359"/>
					</g>
					<g>
						<rect x="106.983" y="95.57" style="fill:#A16C61;" width="20.04" height="3.359"/>
					</g>
				</g>
				<g>
					<g>
						<path style="fill:#FFB3AE;" d="M133.838,179.428l-7.673-24.414c2.966-23.553,2.312-29.012,1.046-29.296
							c-0.382-0.086-0.856,0.388-1.79,1.339c-2.971,3.026-4.242,6.287-4.809,8.176c-1.195-1.119-2.796-2.696-4.567-4.692
							c-6.88-7.756-7.907-12.089-10.153-12.147c-5.101-0.131-6.278,14.91-6.278,14.91S97,135.265,97,137.358
							s10.594,26.811,10.594,26.811l6.278,34.004L133.838,179.428z"/>
					</g>
					<g>
						<path style="fill:#3D71F2;" d="M167.166,149.86c-11.109,9.856-22.218,19.712-33.328,29.567l-19.967,18.746
							c0.004,1.276,0.23,15.168,9.241,19.666c2.325,1.161,5.623,1.89,12.088,0.432c14.28-3.219,24.541-12.717,30.379-19.397
							C166.108,182.537,166.637,166.198,167.166,149.86z"/>
					</g>
				</g>
				<g>
					<path style="fill:#FFB3AE;" d="M269.811,179.177c7.265-3.491,14.531-6.981,21.796-10.471
						c-0.651-23.693,0.017-35.65,2.003-35.873c1.206-0.136,2.897,4.054,5.075,12.569c5.588-11.61,9.387-17.119,11.399-16.53
						c1.542,0.452,2.034,4.488,1.474,12.111c0.862,2.577,1.656,5.645,2.121,9.144c1.007,7.57,0.058,13.984-1,18.365
						c-2.845,8.116-8.425,20.053-19.619,30.483c-3.078,2.868-6.167,5.237-9.106,7.196
						C279.239,197.173,274.525,188.175,269.811,179.177z"/>
				</g>
				<g>
					<path style="fill:#3D71F2;" d="M154.117,229.814c11.063,1.804,24.055,3.148,38.601,3.206
						c17.848,0.07,33.499-1.813,46.314-4.217c-0.85-7.888-1.987-16.115-3.478-24.638c-3.635-20.784-8.697-39.47-14.225-55.867
						c-2.961-2.466-7.18-5.276-12.707-7.134c-7.751-2.606-14.312-1.763-17.828-1.763c-2.014,0-5.157,0.473-9.041,1.719
						c-7.059,2.263-11.892,6.17-14.587,8.741C162.816,176.512,158.467,203.163,154.117,229.814z"/>
				</g>
				<g>
					<path style="fill:#3D71F2;" d="M221.329,148.298c13.392,11.474,26.785,22.948,40.177,34.423l8.305-3.544l14.142,26.995
						c-3.954,2.429-10.025,5.254-17.619,5.529c-23.118,0.835-37.249-22.801-37.865-23.868c-2.717-5.093-6.183-13.169-7.342-23.583
						C220.433,158.019,220.747,152.575,221.329,148.298z"/>
				</g>
				
					<line style="fill:none;stroke:#002D53;stroke-width:1.246;stroke-linecap:round;stroke-miterlimit:10;" x1="261.506" y1="182.721" x2="264.111" y2="190.538"/>
			</g>
		</g>
		<g>
			<path style="fill:#FFB042;" d="M244.486,233.023h-97.094l-8.247-40.908c-2.578-12.787,7.199-24.731,20.243-24.731h54.962
				c9.832,0,18.3,6.932,20.243,16.569L244.486,233.023z"/>
		</g>
	</g>
	<g>
		<g>
			<g>
				<path style="fill:#40C1B0;" d="M163.83,438.673c-2.68-4.505-10.37-18.738-8.33-38c1.998-18.863,12.105-31.009,15.661-34.928
					c-1.52,9.675-2.884,19.758-4.035,30.228C165.486,410.883,164.433,425.145,163.83,438.673z"/>
			</g>
			<g>
				<path style="fill:#40C1B0;" d="M161.242,438.647c0.901-5.923,4.434-24.072,20.208-39.604
					c15.448-15.21,33.185-18.607,39.168-19.488c-8.361,7.442-16.879,15.358-25.492,23.771
					C182.864,415.303,171.588,427.136,161.242,438.647z"/>
			</g>
			<g>
				<path style="fill:#40C1B0;" d="M164.237,435.488c-3.8-1.171-15.368-5.267-24.02-17.142c-8.473-11.629-8.967-23.606-8.959-27.62
					c4.067,6.217,8.43,12.584,13.109,19.061C151.029,419.01,157.693,427.57,164.237,435.488z"/>
			</g>
			<g>
				<polygon style="fill:#FF2B4B;" points="147.918,452.175 178.225,452.175 184.631,431.065 141.512,431.065 				"/>
			</g>
		</g>
		<g>
			<g>
				<path style="fill:#FFB042;" d="M270.586,359.839c8.296-3.943,26.638-11.487,46.051-5.618
					c30.323,9.168,51.702,48.215,50.456,97.908H204.455C209.472,432.704,225.57,381.233,270.586,359.839z"/>
			</g>
			<g>
				<g>
					<path style="fill:#FFB042;" d="M310.411,386.22c2.218-6.235,6.823-11.588,12.656-14.714"/>
				</g>
				<g>
					<path style="fill:#FF7A72;" d="M310.412,387.437c-0.135,0-0.273-0.021-0.409-0.071c-0.632-0.223-0.963-0.92-0.737-1.554
						c2.315-6.51,7.135-12.114,13.226-15.377c0.589-0.321,1.329-0.097,1.647,0.497c0.319,0.594,0.095,1.331-0.497,1.647
						c-5.566,2.98-9.97,8.102-12.086,14.051C311.381,387.126,310.913,387.437,310.412,387.437z"/>
				</g>
			</g>
			<g>
				<g>
					<path style="fill:#FFB042;" d="M306.993,436.561c12.714-8.523,27.527-13.889,42.75-15.485"/>
				</g>
				<g>
					<path style="fill:#FF7A72;" d="M306.994,437.779c-0.392,0-0.775-0.19-1.01-0.539c-0.376-0.559-0.226-1.314,0.333-1.688
						c12.887-8.642,27.86-14.068,43.302-15.686c0.663-0.076,1.267,0.411,1.336,1.084c0.071,0.668-0.414,1.267-1.084,1.336
						c-15.047,1.578-29.64,6.866-42.199,15.287C307.464,437.712,307.227,437.779,306.994,437.779z"/>
				</g>
			</g>
		</g>
		<g>
			<g>
				<g>
					<path style="fill:#40C1B0;" d="M218.256,452.284c6.847-13.093,10.937-24.25,13.434-32.19
						c3.541-11.259,4.787-18.932,11.439-28.924c4.741-7.121,9.746-11.741,12.596-14.078c8.816-7.231,17.875-10.514,23.71-12.102
						c3.466-0.747,8.614-1.33,14.513-0.016c14.1,3.141,21.747,15.407,24.036,19.062c7.178,11.465,7.496,22.663,7.887,36.469
						c0.366,12.926-1.255,23.775-2.964,31.623C288.023,452.181,253.14,452.233,218.256,452.284z"/>
				</g>
				<g>
					<path style="fill:#2C285A;" d="M260.962,452.129c0,0-19.427-21.497-32.023-21.497c-12.596,0-27.908,21.652-27.908,21.652
						L260.962,452.129z"/>
				</g>
				<g>
					<path style="fill:#EAEAEA;" d="M203.784,429.82h45.561c2.915,0,4.561-2.363,3.675-5.278l-8.606-28.34
						c-0.885-2.915-3.966-5.278-6.881-5.278h-45.561c-2.915,0-4.561,2.363-3.675,5.278l8.606,28.34
						C197.788,427.457,200.869,429.82,203.784,429.82z"/>
				</g>
				<g>
					<path style="fill:#002D53;" d="M292.482,421.762c-0.107,0-0.216-0.019-0.321-0.059c-0.473-0.176-0.711-0.703-0.532-1.174
						l9.514-25.288c0.178-0.473,0.711-0.711,1.174-0.532c0.473,0.176,0.711,0.703,0.532,1.174l-9.514,25.288
						C293.197,421.536,292.85,421.762,292.482,421.762z"/>
				</g>
				<g>
					<path style="fill:#FFB3AE;" d="M280.694,452.175h3.465c12.916-0.028,25.832-0.028,38.747-0.056
						c1.164-5.349,2.301-12.084,2.772-19.956l-33.176-11.309L280.694,452.175z"/>
				</g>
				<g>
					<path style="fill:#FFB3AE;" d="M227.221,409.614l2.326,2.453l2.249,11.534l15.145,8.464
						c4.112,6.683,8.223,13.365,12.335,20.048c8.244,0,16.487,0,24.731,0c-4.439-7.031-10.112-14.836-17.33-22.762
						c-3.883-4.264-7.743-8.047-11.455-11.388l-0.874-7.39l-5.611-2.964l0.164,6.689l-12.924-4.717l-6.591-6.178L227.221,409.614z"
						/>
				</g>
				<g>
					<path style="fill:#002D53;" d="M250.482,409.443c-0.069,0-0.14-0.007-0.212-0.026c-0.492-0.117-0.794-0.608-0.675-1.098
						l2.776-11.584c0.117-0.49,0.594-0.81,1.098-0.675c0.492,0.116,0.794,0.608,0.675,1.098l-2.776,11.584
						C251.269,409.163,250.896,409.443,250.482,409.443z"/>
				</g>
			</g>
			<g>
				<g>
					<g>
						
							<ellipse transform="matrix(0.7071 -0.7071 0.7071 0.7071 -129.2681 301.448)" style="fill:#2C285A;" cx="299.246" cy="306.764" rx="13.446" ry="13.446"/>
					</g>
					<g>
						<circle style="fill:#2C285A;" cx="278.504" cy="330.423" r="31.499"/>
					</g>
				</g>
				<g>
					<path style="fill:#FFB3AE;" d="M268.017,355.624v22.526c0,0-1.609,13.945,7.33,12.693c8.939-1.251,18.423-25.943,18.423-25.943
						l-1.476-21.911L268.017,355.624z"/>
				</g>
				<g>
					<path style="fill:#FF7A72;" d="M293.635,362.606c-2.513,3.552-7.896,10.028-16.991,13.69c-3.179,1.28-6.155,1.952-8.685,2.3
						c0.014-0.122,0.049-0.438,0.049-0.438l0,0v-22.537l24.289-12.631L293.635,362.606z"/>
				</g>
				<g>
					<path style="fill:#FFB3AE;" d="M293.701,342.99c1.741,9.508-20.072,27.879-34.37,21.969
						c-11.929-4.931-15.882-22.761-8.829-39.825c3.252-7.868,8.419-16.871,12.491-16.121c3.623,0.668,2.986,8.335,9.115,16.378
						c4.427,5.811,10.196,8.945,14.49,10.702C290.246,337.771,293.153,339.999,293.701,342.99z"/>
				</g>
				<g>
					<path style="fill:#FFB3AE;" d="M303.426,337.984c-2.002,5.206-6.091,8.478-9.133,7.309c-3.043-1.17-3.886-6.339-1.885-11.545
						c2.002-5.206,6.091-8.478,9.133-7.309C304.584,327.609,305.428,332.778,303.426,337.984z"/>
				</g>
				<g>
					<path style="fill:#FF7A72;" d="M266.656,353.559c-0.616,0-1.229-0.052-1.837-0.164c-0.663-0.121-1.1-0.756-0.979-1.416
						c0.124-0.663,0.772-1.093,1.417-0.979c3.026,0.561,6.353-0.792,8.138-3.268c0.392-0.549,1.153-0.673,1.697-0.276
						c0.547,0.392,0.67,1.153,0.276,1.697C273.378,351.915,270.036,353.559,266.656,353.559z"/>
				</g>
				<g>
					<path style="fill:#FF7A72;" d="M262.682,348.621c-0.328,0-0.656-0.131-0.894-0.392l-3.116-3.382
						c-1.229-1.338-1.462-2.728-0.625-3.724c0.658-0.784,1.583-0.806,2.196-0.82c0.204-0.005,0.459-0.012,0.563-0.05
						c0.057-0.019,0.342-0.188,0.466-1.476l0.665-6.909c0.067-0.673,0.67-1.146,1.329-1.096c0.668,0.064,1.16,0.658,1.096,1.329
						l-0.665,6.909c-0.076,0.789-0.278,2.881-2.053,3.529c-0.48,0.176-0.958,0.188-1.343,0.197c-0.055,0-0.121,0.002-0.188,0.005
						c0.076,0.124,0.19,0.283,0.352,0.456l3.111,3.382c0.456,0.494,0.425,1.264-0.069,1.718
						C263.274,348.514,262.977,348.621,262.682,348.621z"/>
				</g>
			</g>
		</g>
		<g>
			<g>
				<path style="fill:#002D53;" d="M211.428,410.33c-0.342,0-0.673-0.195-0.827-0.525l-20.29-43.351
					c-0.214-0.456-0.017-1.001,0.44-1.215c0.456-0.209,1.001-0.017,1.215,0.44l20.29,43.351c0.214,0.456,0.017,1.001-0.44,1.215
					C211.69,410.301,211.559,410.33,211.428,410.33z"/>
			</g>
			<g>
				<circle style="fill:#FFFFFF;" cx="211.429" cy="409.418" r="4.699"/>
				<path style="fill:#002D53;" d="M211.428,415.029c-3.094,0-5.612-2.517-5.612-5.611c0-3.095,2.517-5.611,5.612-5.611
					s5.611,2.517,5.611,5.611C217.04,412.512,214.523,415.029,211.428,415.029z M211.428,405.631c-2.087,0-3.786,1.699-3.786,3.786
					c0,2.087,1.699,3.786,3.786,3.786c2.087,0,3.786-1.699,3.786-3.786C215.214,407.33,213.515,405.631,211.428,405.631z"/>
			</g>
		</g>
		<g>
			<g>
				<rect x="111.572" y="287.226" style="fill:#5D93E9;" width="120.568" height="78.83"/>
			</g>
			<g>
				<g>
					<path style="fill:#2C285A;" d="M192.472,365.437c1.959-2.376,4.001-5.736,4.684-10.008c1.502-9.397-4.161-19.531-14.237-25.938
						c2.041-4.814,7.535-19.554,1.228-34.38c-1.305-3.067-2.921-5.682-4.6-7.886h-44.732c-1.548,3.029-3.459,7.551-4.428,13.268
						c-3.434,20.258,8.194,36.448,10.672,39.9C158.313,364.416,188.681,365.377,192.472,365.437z"/>
				</g>
				<g>
					<path style="fill:#3A66B0;" d="M191.138,366.066H116.86c1.898-3.894,3.87-7.423,5.792-10.587
						c0.56-1.047,2.288-4.137,5.354-7.423c2.58-2.751,6.084-5.671,10.611-7.618c1.582-0.706,3.286-1.265,5.136-1.679
						c0.049-0.024,0.122-0.024,0.17-0.024c5.111-1.144,9.565-0.633,12.583,0.024c2.702,0.73,6.182,1.874,10.027,3.748
						c2.02,0.998,4.138,2.166,6.279,3.578c1.485,0.974,2.993,2.069,4.503,3.31c0.949,0.779,2.239,1.923,3.796,3.456
						c1.558,1.606,3.407,3.651,5.379,6.279c0.608,0.803,1.241,1.68,1.898,2.628C189.337,363.146,190.262,364.582,191.138,366.066z"
						/>
				</g>
				<g>
					<path style="fill:#88B4F6;" d="M166.517,330.528v19.78c0,0,1.413,12.245-6.436,11.146c-7.849-1.099-16.177-22.78-16.177-22.78
						l1.296-19.24L166.517,330.528z"/>
				</g>
				<g>
					<path style="fill:#88B4F6;" d="M143.964,319.435c-1.529,8.349,17.625,24.48,30.18,19.291
						c10.475-4.329,13.946-19.986,7.752-34.97c-2.856-6.909-7.393-14.814-10.969-14.155c-3.181,0.586-2.622,7.319-8.004,14.382
						c-3.888,5.102-8.953,7.855-12.723,9.398C146.997,314.852,144.445,316.808,143.964,319.435z"/>
				</g>
				<g>
					<path style="fill:#88B4F6;" d="M135.424,315.039c1.758,4.572,5.348,7.445,8.02,6.417c2.672-1.027,3.413-5.566,1.655-10.137
						c-1.758-4.572-5.348-7.445-8.02-6.418C134.408,305.929,133.667,310.468,135.424,315.039z"/>
				</g>
				<g>
					<path style="fill:#2C285A;" d="M167.716,328.865c-3.014,0-5.996-1.466-7.774-3.929c-0.395-0.547-0.271-1.307,0.273-1.699
						c0.544-0.397,1.305-0.273,1.699,0.273c1.535,2.13,4.414,3.289,6.999,2.812c0.656-0.112,1.293,0.316,1.417,0.979
						c0.121,0.661-0.319,1.295-0.979,1.417C168.809,328.815,168.262,328.865,167.716,328.865z"/>
				</g>
				<g>
					<path style="fill:#2C285A;" d="M171.2,324.528c-0.295,0-0.589-0.107-0.825-0.321c-0.494-0.456-0.525-1.226-0.071-1.721
						l2.738-2.969c0.052-0.057,0.098-0.112,0.138-0.162c-0.328-0.009-0.718-0.033-1.117-0.178c-1.649-0.606-1.837-2.576-1.901-3.225
						l-0.582-6.065c-0.062-0.67,0.428-1.264,1.096-1.329c0.649-0.05,1.262,0.425,1.329,1.096l0.582,6.065
						c0.098,1.017,0.311,1.172,0.314,1.172c0.071,0.026,0.297,0.031,0.447,0.036c0.53,0.012,1.414,0.033,2.037,0.772
						c0.789,0.936,0.582,2.232-0.551,3.465l-2.736,2.971C171.856,324.395,171.528,324.528,171.2,324.528z"/>
				</g>
				<g>
					<path style="fill:#88B4F6;" d="M159.719,366.066c0.073,0.024,0.146,0.024,0.219,0.024l-24.654-0.024l-7.277-18.01
						c2.58-2.751,6.084-5.671,10.611-7.618C141.051,347.107,148.791,365.628,159.719,366.066z"/>
				</g>
				<g>
					<path style="fill:#88B4F6;" d="M181.111,352.851l-1.387,13.215v0.024h-19.251c0.146,0,0.316,0,0.462-0.024
						c11.195-0.924,12.023-14.554,11.876-19.981c1.485,0.974,2.993,2.069,4.503,3.31
						C178.264,350.173,179.554,351.318,181.111,352.851z"/>
				</g>
			</g>
		</g>
	</g>
	<g>
		<g>
			<g>
				<path style="fill:#FFB042;" d="M628.066,180.526v52.496H402.578v-52.496c0-8.421,6.839-15.235,15.26-15.235h194.993
					C621.252,165.291,628.066,172.105,628.066,180.526z"/>
			</g>
			<g>
				<g>
					<path style="fill:#F58D4F;" d="M584.314,191.491c0,2.006-1.626,3.633-3.633,3.633c-2.006,0-3.633-1.626-3.633-3.633
						s1.626-3.632,3.633-3.632C582.688,187.858,584.314,189.485,584.314,191.491z"/>
				</g>
			</g>
			<g>
				<g>
					<circle style="fill:#F58D4F;" cx="580.682" cy="216.684" r="3.633"/>
				</g>
			</g>
		</g>
		<g>
			<g>
				<g>
					<path style="fill:#FFB3AE;" d="M627.126,174.079l-14.295-8.809c1.112,1.968,2.224,3.936,3.335,5.903
						c2.046,2.053,2.214,4.974,0.996,6.428c-1.434,1.712-5.191,1.869-7.515-0.905c-1.476-1.311-3.278-2.723-5.432-4.074
						c-3.444-2.161-6.708-3.493-9.338-4.334c-17.649-0.031-35.297-0.061-52.946-0.061v-24.019
						c15.057,3.201,29.902,6.157,44.533,8.961c7.559-1.31,15.118-2.651,22.678-3.962c6.31,4.298,12.589,8.626,18.898,12.924
						C627.736,166.093,627.431,170.086,627.126,174.079z"/>
				</g>
				<g>
					<path style="fill:#FFB3AE;" d="M442.541,233.013h-42.566c-0.049-4.04-0.097-8.104-0.171-12.144l39.402-7.812L442.541,233.013z"
						/>
				</g>
				<g>
					<path style="fill:#40C1B0;" d="M541.936,168.227c-11.317-0.049-22.658-0.073-34-0.073c2.702,21.636,5.403,43.248,8.105,64.86
						h-73.499l-3.335-19.957l-39.402,7.812c-0.243-17.937-0.487-35.874-0.73-53.811c2.799-13.434,12.072-24.63,24.752-29.911
						l28.767-11.974l2.75-1.119c2.361,0.608,4.746,1.192,7.155,1.801c13.24,3.285,26.674,6.547,40.352,9.686
						c13.166,3.042,26.187,5.914,39.086,8.664V168.227z"/>
				</g>
				<g>
					<path style="fill:#FFFFFF;" d="M532.634,209.37h-53.871c-3.447,0-5.392-2.794-4.346-6.241l10.175-33.509
						c1.047-3.447,4.689-6.241,8.136-6.241H546.6c3.447,0,5.393,2.794,4.346,6.241l-10.175,33.509
						C539.724,206.576,536.081,209.37,532.634,209.37z"/>
				</g>
				<g>
					<path style="fill:#FFB3AE;" d="M507.421,181.967l-2.795,2.947l-2.701,13.856l-18.194,10.169
						c-4.939,8.028-9.879,16.056-14.819,24.085c-9.904,0-19.807,0-29.711,0c5.333-8.446,12.148-17.823,20.819-27.345
						c4.665-5.123,9.302-9.667,13.762-13.681l1.05-8.878l6.741-3.561l-0.197,8.035l15.527-5.667l7.919-7.422L507.421,181.967z"/>
				</g>
				<g>
					<path style="fill:#002D53;" d="M439.207,213.969c-0.447,0-0.834-0.326-0.903-0.777l-6.084-40.789
						c-0.074-0.499,0.271-0.965,0.768-1.039c0.537-0.095,0.963,0.271,1.039,0.768l6.084,40.789c0.074,0.499-0.271,0.965-0.768,1.039
						C439.295,213.966,439.249,213.969,439.207,213.969z"/>
				</g>
			</g>
			<g>
				<g>
					<path style="fill:#FFB3AE;" d="M469.939,119.36v21.651c0,0,1.547,13.403-7.045,12.2c-8.592-1.203-17.706-24.934-17.706-24.934
						l1.418-21.059L469.939,119.36z"/>
				</g>
				<g>
					<path style="fill:#FF7A72;" d="M469.969,141.48c-2.788-0.113-9.165-0.753-15.562-5.096c-4.973-3.376-7.744-7.488-9.092-9.848
						l1.29-19.324l23.34,12.144v21.661C469.953,141.171,469.961,141.325,469.969,141.48z"/>
				</g>
				<g>
					
						<ellipse transform="matrix(0.9242 -0.382 0.382 0.9242 -2.3382 185.4956)" style="fill:#FFB3AE;" cx="466.013" cy="98.637" rx="22.463" ry="32.133"/>
				</g>
				<g>
					<path style="fill:#2C285A;" d="M446.404,96.85c2.117-1.449,4.385-3.205,6.678-5.329c5.258-4.87,8.79-9.952,11.129-14.052
						c-2.999,4.585-3.949,7.592-2.849,9.02c1.702,2.209,8.309,0.638,19.823-4.713c0.055,0.626,0.504,4.985,3.757,6.77
						c3.724,2.044,8.701-0.613,10.919-3.482c5.581-7.217-1.924-21.424-4.712-21.122c-0.81,0.088-1.396,1.419-1.828,3.163
						c0,0-8.489-13.082-22.854-14.36c-10.491-0.933-18.028,4.376-20.914,6.411c-8.451,5.959-17.888,18.139-15.366,30.813
						c1.98,9.946,10.99,18.514,14.401,17.091C446.76,106.156,446.775,101.152,446.404,96.85z"/>
				</g>
				<g>
					<path style="fill:#FFB3AE;" d="M435.906,102.406c1.924,5.004,5.854,8.149,8.778,7.024c2.924-1.124,3.735-6.092,1.811-11.096
						c-1.924-5.004-5.854-8.149-8.778-7.024C434.793,92.434,433.982,97.402,435.906,102.406z"/>
				</g>
				<g>
					<path style="fill:#FF7A72;" d="M471.247,117.424c-3.261,0-6.488-1.588-8.411-4.257c-0.395-0.544-0.271-1.305,0.276-1.697
						c0.539-0.397,1.302-0.273,1.697,0.276c1.709,2.365,4.915,3.655,7.772,3.123c0.665-0.112,1.295,0.316,1.419,0.977
						c0.121,0.661-0.316,1.295-0.977,1.419C472.433,117.372,471.839,117.424,471.247,117.424z"/>
				</g>
				<g>
					<path style="fill:#FF7A72;" d="M475.067,112.675c-0.295,0-0.589-0.107-0.822-0.321c-0.497-0.454-0.528-1.224-0.074-1.718
						l2.992-3.251c0.126-0.135,0.221-0.259,0.29-0.364c-0.036,0-0.069-0.002-0.1-0.002c-0.371-0.009-0.834-0.019-1.302-0.19
						c-1.733-0.635-1.932-2.667-2.008-3.432l-0.637-6.641c-0.064-0.67,0.428-1.264,1.096-1.329c0.656-0.038,1.264,0.425,1.329,1.096
						l0.637,6.638c0.121,1.238,0.39,1.371,0.418,1.381c0.09,0.033,0.33,0.038,0.525,0.043c0.596,0.014,1.497,0.036,2.146,0.806
						c0.822,0.979,0.597,2.341-0.601,3.644l-2.992,3.247C475.723,112.542,475.395,112.675,475.067,112.675z"/>
				</g>
			</g>
		</g>
		<g>
			<g>
				<rect x="505.256" y="47.717" style="fill:#5D93E9;" width="120.573" height="78.829"/>
			</g>
			<g>
				<g>
					<g>
						<path style="fill:#2C285A;" d="M574.282,96.773c-2.294-0.517-21.774-4.915-25.362-18.757
							c-2.178-8.404,2.533-17.588,4.332-22.415c1.071-2.872,2.652-5.525,4.6-7.886h44.733c0.852,1.023,1.631,2.142,2.312,3.286
							c5.766,9.677,5.603,19.655,5.403,24.046c-0.313,6.879-0.47,10.319-2.514,13.592C601.51,98.689,584.627,99.108,574.282,96.773z
							"/>
					</g>
					<g>
						<path style="fill:#3A66B0;" d="M620.546,126.545h-74.279c0.876-1.485,1.801-2.921,2.75-4.308
							c0.657-0.949,1.29-1.825,1.899-2.629c3.894-5.159,7.228-8.129,9.175-9.735c3.651-3.018,7.35-5.208,10.782-6.888
							c3.845-1.874,7.326-3.018,10.027-3.748c3.018-0.657,7.472-1.168,12.583-0.024c0.049,0,0.122,0,0.17,0.024
							c13.337,2.969,19.908,14.505,21.101,16.72C616.676,119.122,618.647,122.651,620.546,126.545z"/>
					</g>
					<g>
						<path style="fill:#88B4F6;" d="M570.883,91.018v19.78c0,0-1.413,12.245,6.436,11.146c7.849-1.099,16.177-22.78,16.177-22.78
							l-1.296-19.24L570.883,91.018z"/>
					</g>
					<g>
						<path style="fill:#88B4F6;" d="M593.436,79.925c1.529,8.349-17.625,24.48-30.18,19.291
							c-10.475-4.329-13.946-19.986-7.752-34.97c2.856-6.909,7.393-14.814,10.969-14.155c3.181,0.586,2.622,7.319,8.004,14.382
							c3.888,5.103,8.953,7.855,12.723,9.397C590.402,75.341,592.955,77.297,593.436,79.925z"/>
					</g>
					<g>
						<path style="fill:#88B4F6;" d="M601.975,75.529c-1.758,4.572-5.348,7.445-8.02,6.418c-2.672-1.027-3.413-5.566-1.655-10.137
							c1.758-4.571,5.348-7.445,8.02-6.417C602.992,66.419,603.733,70.957,601.975,75.529z"/>
					</g>
					<g>
						<path style="fill:#2C285A;" d="M569.684,89.355c-0.547,0-1.093-0.05-1.635-0.147c-0.661-0.121-1.1-0.756-0.979-1.416
							c0.121-0.663,0.758-1.084,1.417-0.979c2.593,0.48,5.464-0.682,6.997-2.809c0.392-0.547,1.153-0.673,1.697-0.276
							c0.547,0.392,0.67,1.153,0.276,1.697C575.68,87.886,572.7,89.355,569.684,89.355z"/>
					</g>
					<g>
						<path style="fill:#2C285A;" d="M566.2,85.017c-0.328,0-0.656-0.133-0.896-0.392l-2.733-2.968
							c-1.136-1.236-1.343-2.531-0.556-3.468c0.625-0.739,1.509-0.761,2.039-0.772c0.15-0.005,0.376-0.01,0.447-0.036
							c0.002,0,0.216-0.154,0.314-1.172l0.582-6.065c0.066-0.67,0.687-1.131,1.329-1.096c0.668,0.064,1.157,0.658,1.096,1.329
							l-0.582,6.065c-0.064,0.649-0.252,2.619-1.899,3.225c-0.402,0.145-0.792,0.169-1.117,0.178
							c0.038,0.05,0.086,0.105,0.138,0.164l2.736,2.966c0.454,0.494,0.423,1.264-0.071,1.721
							C566.789,84.91,566.494,85.017,566.2,85.017z"/>
					</g>
				</g>
				<g>
					<g>
						<path style="fill:#88B4F6;" d="M538.962,126.546h-20.2c-0.455-3.26-0.975-7.224-2.654-11.947
							c-0.357-1.051-1.354-3.748-0.098-5.892c0.542-0.931,1.321-1.462,1.874-1.776c1.322,3.769,2.632,7.538,3.975,11.319
							c-0.412-3.358-0.704-5.654-1.051-8.427c-0.368-3.011-0.607-4.982,0.639-6.466c0.65-0.78,1.505-1.17,2.155-1.365
							c1.246,4.138,2.491,8.243,3.726,12.38c-0.195-2.621-0.39-6.109-0.509-10.073c-0.022-1.018-0.022-2.48,0.899-3.791
							c0.802-1.17,1.993-1.711,2.729-1.971c0.368,2.112,0.704,4.235,1.051,6.423c0.563,3.813,1.072,7.56,1.462,11.2
							c0.032,0.26,0.065,0.509,0.087,0.769c0.076-0.271,0.141-0.531,0.206-0.78c0.314-1.224,0.498-2.242,0.596-2.989
							c0.325-2.242,0.173-3.141,0.91-4.571c0,0,1.04-2.047,2.264-2.166c0.26-0.033,0.509,0,0.509,0s0.336,0.022,0.845,0.195
							C538.821,114.6,538.941,121.315,538.962,126.546z"/>
					</g>
					<g>
						<path style="fill:#2C285A;" d="M533.742,118.434c-2.881,1.527-5.08,4.332-5.86,7.506c-0.065,0.249-0.195,0.455-0.379,0.607
							h-1.614c-0.325-0.292-0.477-0.747-0.368-1.191c0.942-3.834,3.596-7.224,7.084-9.076c0.119-0.065,0.238-0.097,0.358-0.119
							c0.097-0.022,0.195-0.022,0.292-0.011c0.411,0.022,0.791,0.26,0.997,0.639C534.565,117.383,534.337,118.12,533.742,118.434z"
							/>
					</g>
				</g>
			</g>
		</g>
		<g>
			<g>
				<path style="fill:#2C285A;" d="M519.442,164.597c-0.157,0-0.318-0.031-0.471-0.095c-0.62-0.261-0.913-0.974-0.651-1.592
					l15.477-36.825c0.259-0.62,0.979-0.913,1.592-0.651c0.62,0.261,0.913,0.974,0.651,1.592l-15.477,36.825
					C520.369,164.317,519.918,164.597,519.442,164.597z"/>
			</g>
			<g>
				<g>
					<circle style="fill:#FFFFFF;" cx="519.443" cy="163.379" r="4.699"/>
				</g>
				<g>
					<path style="fill:#2C285A;" d="M519.442,169.296c-3.261,0-5.916-2.655-5.916-5.916c0-3.261,2.655-5.916,5.916-5.916
						s5.916,2.655,5.916,5.916C525.358,166.641,522.703,169.296,519.442,169.296z M519.442,159.898c-1.92,0-3.482,1.561-3.482,3.482
						c0,1.92,1.561,3.482,3.482,3.482s3.482-1.562,3.482-3.482C522.924,161.46,521.363,159.898,519.442,159.898z"/>
				</g>
			</g>
		</g>
	</g>
	<g>
		<g>
			<g>
				<polygon style="fill:#BC7F72;" points="432.581,419.468 632.783,419.468 604.548,389.55 404.346,389.55 				"/>
			</g>
			<g>
				<g>
					<path style="fill:#2C285A;" d="M433.859,391.061h94.087c4.458,0,8.761-1.807,9.611-4.036l12.207-32.032
						c0.849-2.229-2.076-4.036-6.534-4.036l-94.087,0c-4.458,0-8.761,1.807-9.61,4.036l-12.207,32.032
						C426.476,389.254,429.401,391.061,433.859,391.061z"/>
				</g>
				<g>
					<path style="fill:#5D93E9;" d="M554.727,398.735c-0.968,2.657-3.451,4.469-6.629,4.469h-94.079
						c-4.469,0-8.566-3.625-9.162-8.07l-8.74-64.06c-0.596-4.469,2.533-8.094,6.977-8.094h94.104c4.444,0,8.542,3.625,9.162,8.094
						l8.715,64.06C555.248,396.426,555.124,397.643,554.727,398.735z"/>
				</g>
				<g>
					<g>
						<path style="fill:#2C285A;" d="M473.135,331.607c0,0-17.036,17.59-11.395,17.7s5.642,0.111,5.642,0.111
							s-4.314,19.249,0.332,17.147c4.646-2.102,4.646-2.102,4.646-2.102s1.19,8.856,13.317,9.406l28.23-27.477l3.285,6.962
							c0,0,5.281-10.242-1.578-16.658c-6.859-6.416-13.887-5.863-13.887-5.863S490.614,318.221,473.135,331.607z"/>
					</g>
					<g>
						<path style="fill:#3A66B0;" d="M524.588,403.01c-21.982,0.065-43.964,0.129-65.945,0.194
							c0.462-2.329,2.831-12.957,12.833-19.677c9.821-6.599,20.19-4.852,23.6-4.278C514.331,382.494,523.492,400.739,524.588,403.01
							z"/>
					</g>
					<g>
						<path style="fill:#88B4F6;" d="M504.083,373.415v16.473c0,0,1.177,10.198-5.36,9.282
							c-6.537-0.915-13.472-18.971-13.472-18.971l1.079-16.023L504.083,373.415z"/>
					</g>
					<g>
						<path style="fill:#88B4F6;" d="M484.82,364.343c0.256,7.064,18.728,16.744,28.006,10.269
							c7.741-5.401,7.753-18.757,0.026-29.83c-3.563-5.106-8.672-10.72-11.461-9.542c-2.482,1.048-0.818,6.423-3.927,13.132
							c-2.246,4.847-5.871,7.995-8.66,9.926C486.464,360.071,484.74,362.12,484.82,364.343z"/>
					</g>
					<g>
						<path style="fill:#88B4F6;" d="M479.906,364.415c2.25,3.402,5.686,5.094,7.674,3.779c1.988-1.315,1.776-5.139-0.474-8.541
							c-2.25-3.402-5.686-5.094-7.674-3.779C477.444,357.189,477.656,361.013,479.906,364.415z"/>
					</g>
					<g>
						<path style="fill:#2C285A;" d="M507.665,363.822c-0.209,0-0.418-0.052-0.611-0.164c-0.582-0.338-0.779-1.084-0.442-1.664
							l1.571-2.698c-0.178,0.019-0.378,0.024-0.585-0.005c-1.576-0.216-2.115-1.878-2.291-2.422l-1.564-4.827
							c-0.207-0.639,0.143-1.326,0.782-1.533c0.654-0.204,1.326,0.145,1.533,0.782l1.564,4.827c0.202,0.625,0.354,0.768,0.378,0.787
							c-0.033-0.029,0.121-0.057,0.226-0.078c0.463-0.093,1.243-0.247,1.956,0.299c0.696,0.535,1.117,1.649,0.228,3.182
							l-1.692,2.907C508.492,363.606,508.083,363.822,507.665,363.822z"/>
					</g>
					<g>
						<path style="fill:#FFFFFF;" d="M504.553,366.565c-2.618,0.277-5.236,0.553-7.854,0.83c0.379,1.987,2.137,3.386,4.038,3.319
							C502.83,370.639,504.591,368.805,504.553,366.565z"/>
					</g>
					<g>
						<polygon style="fill:#698BCB;" points="493.41,395.271 481.358,399.228 485.251,380.199 						"/>
					</g>
					<g>
						<polygon style="fill:#698BCB;" points="504.083,382.083 503.855,394.871 513.366,399.228 507.946,384.191 						"/>
					</g>
				</g>
			</g>
		</g>
		<g>
			<g>
				<g>
					<path style="fill:#FFB3AE;" d="M569.37,416.492c-1.497,4.109-5.338,6.913-10.254,6.913h-19.125l6.221-28.842
						c0,0,2.996,0-5.222-0.115c-8.219-0.077-6.836-14.018-6.836-14.018l3.226-5.031l-4.839,1.383
						c-2.413,0.684-4.274,0.017-4.558-0.924c-0.279-0.925,0.979-2.082,1.14-2.226c3.649-2.458,7.297-4.915,10.946-7.373
						c4.224,2.022,8.449,4.045,12.673,6.068L569.37,416.492z"/>
				</g>
				<g>
					<path style="fill:#FFFFFF;stroke:#FF5A19;stroke-width:1.6614;stroke-miterlimit:10;" d="M577.045,379.634"/>
				</g>
				<g>
					<path style="fill:#FF2B4B;" d="M626.027,448.242c-11.286,1.841-24.541,3.212-39.381,3.271
						c-18.209,0.072-34.176-1.85-47.25-4.302c0.867-8.048,2.028-16.441,3.548-25.136c3.708-21.203,8.873-40.267,14.512-56.996
						c3.02-2.515,7.325-5.383,12.964-7.278c7.907-2.659,14.601-1.799,18.188-1.799c2.055,0,5.261,0.483,9.224,1.753
						c7.201,2.309,12.133,6.294,14.882,8.918c4.365,8.483,9.364,20.407,12.31,35.292
						C628.822,421.151,627.667,437.463,626.027,448.242z"/>
				</g>
				<g>
					<path style="fill:#FFB3AE;" d="M504.384,415.978c0,0-5.768-6.922-8.57-7.296c-2.803-0.374-12.095,0.806-12.095,0.806
						l-3.245,2.805l-6.785,1.177l-3.835,5.998l10.768,3.737l10.546,6.859L504.384,415.978z"/>
				</g>
				<g>
					<path style="fill:#FF2B4B;" d="M557.457,365.079c-1.054,0.499-2.697,1.339-4.561,2.592
						c-6.739,4.529-11.859,11.417-19.47,32.303c-2.323,6.374-5.191,14.912-7.965,25.223c-5.458-3.245-10.915-6.49-16.372-9.735
						c-1.134-0.044-8.493-0.21-13.718,5.531c-3.163,3.475-3.963,7.379-4.204,9.072c1.377,1.631,23.214,26.904,42.665,21.451
						c18.716-5.246,23.852-35.751,28.062-60.761c0.757-4.499,0.766-8.286,0.295-11.8C561.377,372.9,559.21,368.168,557.457,365.079z
						"/>
				</g>
				<g>
					<path style="fill:#002D53;" d="M532.161,438.413c-0.323,0-0.637-0.171-0.801-0.475l-6.7-12.304
						c-0.242-0.445-0.078-0.998,0.364-1.238c0.449-0.24,1.001-0.078,1.238,0.364l6.7,12.304c0.242,0.444,0.078,0.998-0.364,1.238
						C532.459,438.378,532.309,438.413,532.161,438.413z"/>
				</g>
			</g>
			<g>
				<g>
					
						<ellipse transform="matrix(0.3152 -0.949 0.949 0.3152 91.9462 763.1131)" style="fill:#FFB3AE;" cx="574.724" cy="317.848" rx="34.424" ry="24.346"/>
				</g>
				<g>
					<path style="fill:#2C285A;" d="M544.636,319.217c-0.479-3.447-1.084-11.389,3.23-19.276
						c7.044-12.876,22.872-17.697,35.12-15.682c15.234,2.506,22.987,15.265,23.021,15.338c0.022,0.049,0.042,0.098,0.042,0.099
						c0.027,0.069,0.046,0.139,0.064,0.216v0c3.15,13.787,10.214,26.214,19.607,36.786c6.78,7.63,10.393,17.369,9.702,27.211
						c-0.099,1.412-1.448,16.997-14.603,26.108c-15.378,10.651-37.562,5.996-48.676-6.195c-9.244-10.14-12.626-27.481-8.186-39.826
						c1.66-4.617,4.679-9.195,3.761-15.93c-0.8-5.876-4.172-10.325-6.949-13.198c-0.337,0.778-1.883,4.105-5.663,5.675
						C549.793,322.752,544.96,319.447,544.636,319.217z"/>
				</g>
				<g>
					<path style="fill:#FFB3AE;" d="M570.723,328.873c0.506,5.629-0.98,10.364-3.32,10.575c-2.34,0.211-4.648-4.182-5.154-9.811
						c-0.506-5.63,0.98-10.364,3.32-10.575C567.909,318.851,570.217,323.244,570.723,328.873z"/>
				</g>
			</g>
		</g>
		<g>
			<path style="fill:#FFB042;" d="M545.107,451.515h99.056l8.414-41.734c2.63-13.045-7.344-25.231-20.652-25.231h-56.073
				c-10.03,0-18.67,7.072-20.652,16.904L545.107,451.515z"/>
		</g>
	</g>
</g>
</svg>
